<svg xmlns="http://www.w3.org/2000/svg" viewBox="250 100 220 350"  aria-labelledby="title"
aria-describedby="desc" role="img" xmlns:xlink="http://www.w3.org/1999/xlink">
  <title>toDidit</title>
  <desc>A modified icon from undraw.co.</desc>
 <circle cx="346.2124" cy="263.14042" r="165.22325" fill="#fff" />
 
        <path
          d="M564.49731,573.40632a18.37348,18.37348,0,0,1-14.70157-7.353l-45.07543-60.10157a18.37838,18.37838,0,1,1,29.40612-22.0531l29.48989,39.31686,75.741-113.60995a18.37916,18.37916,0,0,1,30.58477,20.38984L579.79118,565.22166a18.38663,18.38663,0,0,1-14.78233,8.17868C564.83833,573.40333,564.66782,573.40632,564.49731,573.40632Z"
          transform="translate(-240.82477 -224.27489)"
          fill="#e2e2e2"
        />
        <path
          d="M616.97678,553.67405a18.37353,18.37353,0,0,1-14.70157-7.353l-45.07543-60.10157a18.37838,18.37838,0,1,1,29.40612-22.0531l29.48989,39.31685,75.741-113.61a18.37915,18.37915,0,1,1,30.58476,20.38984l-90.15086,135.2263a18.38665,18.38665,0,0,1-14.78234,8.17867C617.3178,553.67105,617.14729,553.67405,616.97678,553.67405Z"
          transform="translate(-240.82477 -224.27489)"
                    fill="#570df8"
        />
</svg>
